<svg xmlns="http://www.w3.org/2000/svg" width="1000" height="680.429" viewBox="0 0 264.583 180.03"><defs><clipPath id="a" clipPathUnits="userSpaceOnUse"><path d="M458.17 423H576v-92.45H458.17Z" style="clip-rule:evenodd"/></clipPath></defs><g clip-path="url(#a)" transform="matrix(2.24764 0 0 -2.24764 -1029.912 936.99)"><path d="M541.77 365.032c-1.08 8.658-2.223 16.403-2.906 19.506-1.273 5.774-11.606 56.835-23.421 1.258-1.193-5.61-1.976-13.335-2.489-20.764h-12.439c-.512 7.429-1.296 15.154-2.488 20.764-11.815 55.577-22.292 4.516-23.564-1.258-1.488-6.749-5.148-35.461-5.606-47.758h-10.638c.458 17.559 7.092 45.127 10.753 55.765 3.002 8.724 17.061 43.056 30.427 10.753 1.373-3.318 6.606-17.96 7.293-24.937.686 6.977 5.862 21.619 7.235 24.937 13.367 32.303 27.426-2.029 30.427-10.753 2.049-5.955 4.779-16.048 6.846-27.513h-9.43" style="fill:#fab217;fill-opacity:1;fill-rule:nonzero;stroke:none"/></g><path d="M352.98 157.564c.163 1.554.267 3.116.292 4.642h-3.43c-.045-1.2-.176-2.843-.353-4.642h3.492M338.6 157.564a128.619 128.619 0 0 0-.067 2.967h-3.864c0-.119-.013-1.28-.069-2.967h4.001" style="fill:#fab217;fill-opacity:1;fill-rule:nonzero;stroke:none;stroke-width:.35277775" transform="matrix(6.37127 0 0 6.37127 -2035.076 -853.425)"/><path d="M332.849 154.765c-.006-.154-.056-.349-.137-.436-.08-.094-.177-.14-.335-.14-.483 0-.564.553-.564 1.033 0 .53.186.88.564.88.335 0 .466-.264.503-.524h1.2c0 1.021-.642 1.464-1.703 1.464-1.048 0-1.854-.638-1.854-1.827 0-1.202.781-1.894 1.854-1.894.868 0 1.586.403 1.68 1.444h-1.208M334.483 156.92V152.8h2.023c1.463 0 2.542.618 2.542 1.973 0 1.55-.952 2.145-2.408 2.145zm1.428-.901h.375c.694 0 1.395-.365 1.395-1.128 0-.84-.632-1.105-1.426-1.105h-.344v2.233M341.19 153.321c1.194 0 1.93.732 1.93 1.827 0 1.29-.84 1.895-1.924 1.895s-1.924-.618-1.924-1.82c0-1.223.775-1.902 1.918-1.902zm-.647 1.833c0 .663.27.951.654.951.408 0 .655-.288.655-.951 0-.516-.247-.904-.64-.884-.516 0-.669.489-.669.884M343.442 153.536h1.25v.307c.295-.406.711-.404 1.065-.404.815 0 1.256.523 1.256 1.453v2.027h-1.263v-1.698c0-.335-.127-.632-.497-.632-.4 0-.557.264-.557.697v1.633h-1.254v-3.383M350.695 156.92h-1.085l-.058-.186c-.273.273-.603.342-1.145.282-.474-.052-1.052-.442-1.052-1.146 0-1.644 2.032-.802 2.032-1.432 0-.187-.226-.192-.294-.192-.17 0-.396.039-.424.33h-1.087c0-.717.434-1.137 1.586-1.137 1.441 0 1.528.594 1.528 1.401zm-1.237-1.639c-.387.21-.9.108-.9.538 0 .164.143.278.376.278.416 0 .553-.36.524-.816M351.344 152.8h1.239v4.12h-1.239zM355.434 156.92v-.21c-.17.27-.528.315-1.008.306-.99-.019-1.491-.768-1.491-1.724 0-1.123.608-1.853 1.39-1.853.414 0 .773.103 1.048.439V152.8h1.233v4.12zm-.056-1.661c0-.397-.133-.83-.592-.83-.459 0-.586.453-.586.85 0 .377.094.816.546.816.479 0 .632-.418.632-.836M358.85 155.768c0 .138.053.324.137.397a.43.43 0 0 0 .307.105c.157.002.316-.072.316-.29 0-.584-1.85-.111-1.85-1.448 0-.883.836-1.14 1.492-1.14.81 0 1.492.217 1.564 1.133h-1.137c-.012-.113-.054-.237-.12-.296a.3.3 0 0 0-.233-.086c-.203 0-.31.118-.31.27.001.58 1.926.132 1.926 1.423 0 .718-.541 1.205-1.696 1.205-.834 0-1.507-.344-1.572-1.273h1.176M357 153.975l.158-1.174h.815l-.341 1.174h-.633M328.116 156.92l.68-1.86c.011.179.386 1.86.386 1.86h1.294l-.67-4.118h-1.548l-.57 1.98-.662-1.98h-1.548l-.67 4.117h1.203s.375-1.68.386-1.86l.68 1.86h1.039" style="fill:#000;fill-opacity:1;fill-rule:nonzero;stroke:none;stroke-width:.35277775" transform="matrix(6.37127 0 0 6.37127 -2035.076 -853.425)"/></svg>